<svg xmlns="http://www.w3.org/2000/svg" version="1.1" xmlns:xlink="http://www.w3.org/1999/xlink" xmlns:svgjs="http://svgjs.dev/svgjs" width="46" height="46"><svg width="46" height="46" viewBox="0 0 46 46" fill="none" xmlns="http://www.w3.org/2000/svg">
<g clip-path="url(#clip0_263_3701)">
<path d="M0.00830078 35.5782C2.44502 32.2018 4.8826 28.8264 7.31762 25.4488C10.6373 20.8441 13.9548 16.2377 17.2724 11.6317C17.3771 11.4865 17.4742 11.3361 17.5748 11.1875C17.8921 11.8306 18.3295 12.3929 18.7793 12.9461C18.715 13.0284 18.6477 13.1084 18.5868 13.1932C13.5272 20.2137 8.46847 27.2355 3.40932 34.2574C3.2645 34.458 3.12012 34.659 2.92675 34.9278C5.32812 34.9946 7.37639 34.4503 8.82497 32.4987C10.9806 29.5939 13.1157 26.6737 15.2594 23.7604C15.9239 22.8574 16.5815 21.9494 17.2574 21.0554C17.5688 20.6439 18.0799 20.5327 18.4969 20.7406C18.8968 20.9404 19.1251 21.4042 19.0221 21.8288C18.9684 22.0507 18.8347 22.2322 18.7009 22.4141C16.3528 25.6042 14.0017 28.7923 11.6646 31.9906C11.2361 32.5767 10.7361 33.115 10.4201 33.7799C10.377 33.7807 10.3408 33.7854 10.3847 33.8387C10.3979 33.8208 10.4115 33.8029 10.4247 33.7846C10.6279 33.8029 10.8004 33.7007 10.9806 33.6355C15.1142 32.1384 18.4347 29.5624 21.0984 26.0847C23.1497 23.4065 25.2508 20.7666 27.3297 18.1096C27.7548 18.6246 28.1799 19.1395 28.605 19.6545C26.5362 22.3071 24.4684 24.9602 22.3988 27.6125C19.4114 31.4411 15.6394 34.1675 11.0151 35.6859C10.676 35.7971 10.7105 35.9214 10.8439 36.1851C11.8955 38.2649 12.9317 40.3524 13.9757 42.4356C14.0242 42.5322 14.0396 42.6587 14.1823 42.7154C15.1402 40.8013 16.0942 38.891 17.053 36.9829C17.1395 36.8112 17.2349 36.6353 17.3631 36.4947C17.6689 36.1591 18.1689 36.1008 18.5535 36.3291C18.9462 36.562 19.1366 37.0169 18.9995 37.448C18.9364 37.646 18.8406 37.8347 18.7444 38.02C18.6707 38.1622 18.64 38.2934 18.7158 38.4442C19.4314 39.8698 20.1452 41.2966 20.8804 42.7652C20.9737 42.5868 21.0448 42.4564 21.1108 42.324C22.1871 40.1564 23.2664 37.9902 24.3359 35.8192C24.5101 35.4657 24.7278 35.1578 25.0076 34.8784C27.8144 32.0796 30.5974 29.257 33.4218 26.4757C36.6132 23.3328 38.138 19.5331 38.0597 15.0711C38.7386 14.8952 39.3945 14.6575 40.0236 14.3462C40.2502 19.5437 38.6504 24.0462 34.9342 27.7496C32.1265 30.5475 29.3286 33.3552 26.5256 36.1578C26.3557 36.3274 26.201 36.5016 26.0924 36.7226C24.9377 39.0682 23.7771 41.4108 22.619 43.7547C22.5798 43.8343 22.5543 43.9203 22.5223 44.0034C21.4315 44.0038 20.3407 44.0038 19.2499 44.0042C18.7444 42.8197 18.1217 41.6949 17.5126 40.4661C16.9193 41.7119 16.2859 42.8244 15.7863 44.0038C15.3259 44.0076 14.8659 44.0132 14.4054 44.0153C13.5033 44.0191 13.1647 44.3646 13.1911 45.259C13.1524 45.1977 13.1077 45.1389 13.0753 45.0742C11.6812 42.2873 10.2872 39.5005 8.8978 36.7111C8.79217 36.4994 8.70613 36.321 8.40671 36.3895C6.08882 36.9185 3.73217 36.9254 1.37254 36.9202C0.765171 36.919 0.294097 36.7673 0.00830078 36.206C0.00830078 35.9968 0.00830078 35.7873 0.00830078 35.5782Z" fill="#717171"></path>
<path d="M40.0241 14.3471C39.3955 14.6584 38.7391 14.8961 38.0606 15.072C37.4545 15.1559 36.8463 15.2496 36.2334 15.1926C35.9753 15.1683 35.8271 15.2722 35.6695 15.4532C34.1689 17.1748 32.6612 18.89 31.1538 20.6052C30.575 21.2637 29.9625 21.2501 29.3883 20.5733C29.1281 20.2666 28.8666 19.9608 28.6055 19.6546C28.1804 19.1396 27.7553 18.6247 27.3307 18.1102C26.5781 17.1855 25.8212 16.2633 25.0754 15.3323C24.9511 15.1768 24.8156 15.1717 24.6444 15.1836C23.9714 15.2313 23.3031 15.1964 22.6391 15.0652C21.1275 14.7662 19.8719 14.0059 18.7798 12.9454C18.33 12.3921 17.8926 11.8303 17.5753 11.1867C17.2286 10.4541 16.9688 9.69343 16.8904 8.88247C16.8708 8.68101 16.7711 8.60647 16.6046 8.53917C16.1902 8.37093 15.7821 8.18821 15.3737 8.00591C14.7625 7.73332 14.5171 7.21326 14.7399 6.67234C14.9597 6.13823 15.5159 5.94443 16.128 6.17614C16.4019 6.27963 16.7068 6.56926 16.9317 6.44915C17.1072 6.35545 17.1098 5.9423 17.1945 5.67269C17.2346 5.54491 17.2852 5.42054 17.3351 5.29617C17.6771 4.44262 17.6775 4.44262 17.0365 3.80117C16.4125 3.17719 15.7881 2.55364 15.165 1.9288C14.4226 1.18471 14.4848 0.59182 15.363 0.0283203C15.5428 0.0283203 15.7221 0.0283203 15.9018 0.0283203C16.1748 0.157802 16.3925 0.357135 16.6029 0.570098C17.2652 1.24093 17.9441 1.89515 18.5945 2.57706C18.8233 2.81686 18.9485 2.8488 19.2172 2.60219C22.2728 -0.196143 27.0423 0.166746 29.6635 3.38419C29.8931 3.66573 30.0984 3.96686 30.3348 4.28545C30.6116 3.83567 30.9012 3.43786 31.2352 3.07412C33.9364 0.127987 38.464 -0.0892352 41.4229 2.60304C41.6959 2.85136 41.822 2.81004 42.0469 2.57493C42.6666 1.92582 43.3131 1.30226 43.9444 0.664228C44.1816 0.424431 44.4193 0.187617 44.7217 0.0287462C44.9014 0.0287462 45.0807 0.0287462 45.2605 0.0287462C45.5991 0.209765 45.8717 0.449561 45.9786 0.836728C45.9786 0.986228 45.9786 1.13615 45.9786 1.28565C45.8321 1.54462 45.643 1.76738 45.4313 1.97693C44.668 2.73039 43.9188 3.49834 43.15 4.24584C42.9707 4.42004 42.9422 4.54271 43.0606 4.77143C43.2365 5.11217 43.3664 5.47932 43.4882 5.84434C43.7122 6.51645 43.7041 6.51943 44.3843 6.23193C45.1872 5.89289 45.6361 6.0671 45.979 6.85123C45.979 7.03097 45.979 7.21028 45.979 7.39002C45.6234 7.97141 44.9998 8.14008 44.424 8.35091C43.9733 8.51575 43.7736 8.73765 43.6824 9.24536C43.2923 11.4218 42.1073 13.08 40.2094 14.2236C40.146 14.2615 40.0859 14.3058 40.0241 14.3471ZM24.0604 13.2278C26.9631 13.2282 29.3385 10.8515 29.3334 7.95182C29.3283 5.06447 26.9776 2.7108 24.0881 2.70015C21.1808 2.68908 18.7973 5.04999 18.7909 7.94671C18.7841 10.843 21.1633 13.2273 24.0604 13.2278ZM36.5835 2.70015C33.671 2.69291 31.3131 5.04786 31.3148 7.96247C31.3165 10.8558 33.6595 13.2158 36.5418 13.2278C39.4491 13.2397 41.8326 10.8813 41.8428 7.98206C41.8535 5.07725 39.4934 2.70739 36.5835 2.70015ZM30.3049 11.6322C29.5493 12.8742 28.5412 13.8253 27.2476 14.4583C27.0202 14.5694 27.056 14.6401 27.1897 14.8007C28.1732 15.9827 29.1507 17.1689 30.1222 18.3606C30.256 18.5246 30.3262 18.5612 30.4851 18.3781C31.5009 17.2038 32.524 16.0355 33.5582 14.8769C33.7639 14.6465 33.6612 14.5839 33.4496 14.4851C32.4874 14.037 31.6751 13.3905 31.0018 12.5731C30.7573 12.2771 30.543 11.9564 30.3049 11.6322Z" fill="#020202"></path>
<path d="M13.8353 45.9917C13.57 45.7924 13.2761 45.6177 13.1913 45.2595C13.1653 44.3651 13.5035 44.0192 14.4056 44.0158C14.8661 44.0141 15.3261 44.0082 15.7865 44.0043C16.9412 44.0043 18.0954 44.0048 19.2497 44.0048C20.3405 44.0043 21.4313 44.0043 22.5221 44.0039C24.383 44.0082 26.2443 44.0137 28.1055 44.0158C28.5664 44.0163 28.9114 44.1998 29.0988 44.6309C29.2649 45.0129 29.184 45.366 28.9135 45.6642C28.7926 45.7979 28.6196 45.8844 28.4701 45.9921C23.592 45.9917 18.7135 45.9917 13.8353 45.9917Z" fill="#020202"></path>
<path d="M24.9032 8.07747C24.8951 8.64949 24.5003 9.06306 23.9674 9.05753C23.3865 9.05156 22.9857 8.64268 22.9938 8.06469C23.0023 7.47266 23.401 7.08507 23.9836 7.1021C24.5616 7.11914 24.9117 7.49055 24.9032 8.07747Z" fill="#717171"></path>
<path d="M37.5364 7.96611C37.5411 8.53514 37.1646 8.91975 36.5922 8.93168C36.0201 8.94318 35.6155 8.54111 35.6066 7.9529C35.5985 7.41027 36.0095 6.98307 36.5542 6.96816C37.099 6.95283 37.5317 7.39281 37.5364 7.96611Z" fill="#717171"></path>
</g>
<defs>
<clipPath id="SvgjsClipPath1001">
<rect width="46" height="46" fill="white"></rect>
</clipPath>
</defs>
</svg><style>@media (prefers-color-scheme: light) { :root { filter: none; } }
@media (prefers-color-scheme: dark) { :root { filter: none; } }
</style></svg>