<svg width="28" height="26" viewBox="0 0 28 26" fill="none" xmlns="http://www.w3.org/2000/svg">
<path d="M0 19.73C0.0606667 19.4477 0.110444 19.1623 0.184333 18.8836C0.450074 17.8828 0.974037 17.0358 1.70567 16.305C5.96685 12.049 10.2229 7.78803 14.4822 3.53022C15.0363 2.97644 15.5654 2.39078 16.1653 1.89118C18.292 0.120442 20.7104 -0.347261 23.2991 0.603442C25.866 1.54611 27.3902 3.45218 27.8999 6.15081C27.9352 6.33748 27.9668 6.52518 28 6.71211C28 7.11318 28 7.51426 28 7.91533C27.8914 8.42996 27.8151 8.95392 27.6676 9.45715C27.3306 10.6077 26.6998 11.5896 25.8538 12.4355C21.9224 16.3674 17.9918 20.2994 14.0607 24.2308C13.6536 24.6378 13.1525 24.6759 12.8038 24.3303C12.4574 23.9868 12.4932 23.4779 12.8966 23.0745C16.827 19.1423 20.7638 15.2163 24.6869 11.2769C27.4099 8.54248 26.704 4.06974 23.2963 2.36744C21.2224 1.33144 18.7144 1.69104 17.0372 3.31037C15.7129 4.58878 14.4265 5.90685 13.1247 7.20885C9.69578 10.6373 6.26604 14.065 2.84019 17.4963C1.45574 18.8825 1.24496 20.9286 2.31415 22.4924C3.70067 24.5204 6.54267 24.777 8.31185 23.019C10.5811 20.764 12.8377 18.4965 15.0998 16.2342C16.5239 14.8098 17.9506 13.3878 19.3708 11.9593C20.1336 11.1921 20.3101 10.1776 19.8549 9.27878C19.2036 7.99285 17.5091 7.64803 16.408 8.57929C16.29 8.67911 16.1804 8.78929 16.0707 8.8987C13.1831 11.7861 10.2954 14.6729 7.41041 17.5624C7.17215 17.8011 6.9147 17.9629 6.56211 17.888C5.94767 17.7573 5.69696 17.0493 6.09337 16.5634C6.12785 16.5212 6.16856 16.4841 6.20718 16.4455C9.1713 13.4803 12.1289 10.5087 15.1037 7.55418C16.1752 6.48992 17.4863 6.15781 18.9301 6.56926C20.3441 6.97215 21.2637 7.93192 21.6173 9.36381C21.9564 10.7368 21.6189 11.9678 20.6446 12.9984C20.0374 13.6406 19.3986 14.2527 18.7735 14.878C15.667 17.9847 12.5658 21.0963 9.45259 24.196C7.22296 26.4158 3.66981 26.3715 1.51978 24.1092C0.698185 23.2448 0.20637 22.2171 0.0495185 21.0318C0.0425185 20.9794 0.0168518 20.9296 0 20.8786C0 20.4959 0 20.113 0 19.73Z" fill="#717171"/>
</svg>
