<svg width="92" height="21" viewBox="0 0 92 21" fill="none" xmlns="http://www.w3.org/2000/svg">
<g clip-path="url(#clip0_113_187)">
<path d="M87.1826 11.5487L87.4254 12.4765H79.0399L79.172 11.9725L76.6484 12.1049L74.5034 20.4616H76.9775L78.4897 14.8171H87.9743L89.4865 20.4616H91.9605L89.6389 11.4189L87.1826 11.5487Z" fill="url(#paint0_linear_113_187)"/>
<path d="M69.2795 12.4944V20.4616H71.7536V12.3633L69.2795 12.4944Z" fill="url(#paint1_linear_113_187)"/>
<path d="M61.0288 12.9296L53.9585 13.3025H58.0083L62.682 20.4616H65.569L60.6209 13.0264C60.7594 12.9971 60.8941 12.964 61.0288 12.9296Z" fill="url(#paint2_linear_113_187)"/>
<path d="M50.4475 20.4617H52.9216V13.3573L50.4475 13.4884V20.4617Z" fill="url(#paint3_linear_113_187)"/>
<path d="M42.8562 13.8893C42.7202 14.2724 42.5512 14.6465 42.3517 15.0105C41.9578 15.7258 41.4444 16.3558 40.8116 16.8967C40.1788 17.4389 39.4456 17.8704 38.612 18.1911C37.7784 18.5131 36.866 18.6734 35.8762 18.6734C34.777 18.6734 33.763 18.4851 32.8379 18.1096C31.9115 17.7329 31.1148 17.2009 30.4464 16.5124C29.9165 15.9664 29.4794 15.3338 29.1337 14.6147L26.5364 14.7522C26.5567 14.8069 26.5758 14.8616 26.5974 14.9151C27.1018 16.1547 27.7982 17.2276 28.6864 18.1364C29.5747 19.0451 30.6332 19.7514 31.862 20.2567C33.0895 20.7607 34.4275 21.014 35.8762 21.014C37.1774 21.014 38.368 20.8078 39.4494 20.3942C40.5308 19.9805 41.4838 19.4129 42.3085 18.6874C43.1332 17.962 43.8245 17.0953 44.3836 16.0847C44.7839 15.3618 45.1105 14.5842 45.3659 13.7569L42.8562 13.8893Z" fill="url(#paint4_linear_113_187)"/>
<path d="M19.9325 15.0984V17.1577L19.9592 17.4338H19.9045L18.5868 15.1697L15.8357 15.3147L18.832 20.4617H22.4066V14.9686L19.9325 15.0984Z" fill="url(#paint5_linear_113_187)"/>
<path d="M6.87329 20.4617L9.34738 20.4349V15.6571L6.87329 15.7882V20.4617Z" fill="url(#paint6_linear_113_187)"/>
<path d="M0 16.1509V20.4617H2.47409V16.0198L0 16.1509Z" fill="url(#paint7_linear_113_187)"/>
<path d="M3.10934 0.551086H0.635254V15.5145L3.10934 15.3835V0.551086Z" fill="white"/>
<path d="M11.082 0.551086H7.50879V15.1518L9.98288 15.0207V3.85509L9.95492 3.58018H10.0108L16.4712 14.6784L19.2223 14.5333L11.082 0.551086Z" fill="white"/>
<path d="M20.5679 0.551086V14.462L23.042 14.3322V0.551086H20.5679Z" fill="white"/>
<path d="M29.5163 13.3967C29.1402 12.4333 28.9534 11.3642 28.9534 10.1882C28.9534 9.01345 29.1415 7.94436 29.5163 6.97964C29.8924 6.01618 30.4147 5.19018 31.0831 4.50164C31.7515 3.81309 32.5495 3.28109 33.4746 2.90436C34.3997 2.52891 35.4124 2.33927 36.5129 2.33927C37.1724 2.33927 37.7823 2.40418 38.3415 2.53145C38.9006 2.66 39.4089 2.83436 39.8676 3.05455C40.325 3.27473 40.7342 3.52291 41.0913 3.79782C41.4484 4.07273 41.7648 4.34891 42.0392 4.62382C42.6619 5.28436 43.1562 6.03782 43.5234 6.88164H45.9975C45.5757 5.59745 44.953 4.44945 44.1283 3.44018C43.7801 3.01764 43.3671 2.60018 42.8919 2.18782C42.4154 1.77418 41.8652 1.40764 41.2425 1.08691C40.6186 0.766182 39.9133 0.504 39.1255 0.301636C38.3364 0.100545 37.4659 0 36.5129 0C35.0643 0 33.7262 0.252 32.4987 0.757273C31.2699 1.26255 30.2127 1.96891 29.3232 2.87764C28.4337 3.78636 27.7373 4.86055 27.2341 6.09891C26.7296 7.33854 26.478 8.70164 26.478 10.1882C26.478 11.6111 26.7106 12.9182 27.1718 14.1133L29.7692 13.9758C29.679 13.7887 29.5938 13.5965 29.5163 13.3967Z" fill="white"/>
<path d="M48.6089 12.1151V9.77454H40.0862V12.1151H43.798C43.7255 12.5033 43.6239 12.8813 43.4917 13.2516L46.0026 13.1193C46.103 12.7922 46.1945 12.4587 46.272 12.1151H48.6089Z" fill="white"/>
<path d="M65.0213 10.3116C65.9006 9.27435 66.3403 8.0398 66.3403 6.60799C66.3403 5.74508 66.1802 4.94708 65.8587 4.21271C65.5372 3.47835 65.0797 2.84071 64.4838 2.29853C63.8878 1.75762 63.1546 1.32999 62.2841 1.01817C61.4137 0.70635 60.4289 0.549805 59.3285 0.549805H51.0828V12.8507L53.5569 12.7196V12.6649H54.5938L61.664 12.292C63.0974 11.9204 64.2169 11.2611 65.0213 10.3116ZM53.5569 2.89162H59.3297C60.8508 2.89162 61.9868 3.23526 62.7391 3.9238C63.4901 4.61235 63.8662 5.50708 63.8662 6.60799C63.8662 7.7089 63.4901 8.6049 62.7391 9.29217C61.9868 9.98071 60.8508 10.3244 59.3297 10.3244H53.5569V2.89162Z" fill="white"/>
<path d="M72.3891 0.551086H69.915V11.858L72.3891 11.7269V0.551086Z" fill="white"/>
<path d="M82.012 2.89163H85.7238L87.8179 10.9124L90.2742 10.7825L87.6477 0.551086H80.0869L77.2837 11.4685L79.8073 11.3362L82.012 2.89163Z" fill="white"/>
</g>
<defs>
<linearGradient id="paint0_linear_113_187" x1="83.2951" y1="21.6478" x2="82.6578" y2="9.68425" gradientUnits="userSpaceOnUse">
<stop stop-color="white"/>
<stop offset="0.8883"/>
</linearGradient>
<linearGradient id="paint1_linear_113_187" x1="70.8302" y1="22.3119" x2="70.1929" y2="10.3484" gradientUnits="userSpaceOnUse">
<stop stop-color="white"/>
<stop offset="0.8911"/>
</linearGradient>
<linearGradient id="paint2_linear_113_187" x1="60.0823" y1="22.8845" x2="59.4449" y2="10.9209" gradientUnits="userSpaceOnUse">
<stop stop-color="white"/>
<stop offset="0.9044"/>
</linearGradient>
<linearGradient id="paint3_linear_113_187" x1="52.025" y1="23.3138" x2="51.3876" y2="11.3502" gradientUnits="userSpaceOnUse">
<stop stop-color="white"/>
<stop offset="0.8987"/>
</linearGradient>
<linearGradient id="paint4_linear_113_187" x1="36.4775" y1="24.142" x2="35.8402" y2="12.1785" gradientUnits="userSpaceOnUse">
<stop stop-color="white"/>
<stop offset="0.8625"/>
</linearGradient>
<linearGradient id="paint5_linear_113_187" x1="19.6467" y1="25.0387" x2="19.0093" y2="13.0752" gradientUnits="userSpaceOnUse">
<stop stop-color="white"/>
<stop offset="0.8946"/>
</linearGradient>
<linearGradient id="paint6_linear_113_187" x1="8.5123" y1="25.6319" x2="7.87494" y2="13.6684" gradientUnits="userSpaceOnUse">
<stop stop-color="white"/>
<stop offset="0.9136"/>
</linearGradient>
<linearGradient id="paint7_linear_113_187" x1="1.64906" y1="25.9976" x2="1.0117" y2="14.034" gradientUnits="userSpaceOnUse">
<stop stop-color="white"/>
<stop offset="0.8899"/>
</linearGradient>
<clipPath id="clip0_113_187">
<rect width="92" height="21" fill="white"/>
</clipPath>
</defs>
</svg>
