<svg width="155" height="15" viewBox="0 0 155 15" fill="none" xmlns="http://www.w3.org/2000/svg">
<g clip-path="url(#clip0_113_111)">
<path d="M0 13.41L4.83 8.17C6.44 6.42 7.26 5.43 7.26 4.09C7.26 2.57 6.08 1.62 4.53 1.62C2.87 1.62 1.82 2.69 1.82 4.33H0.04C0.04 1.75 1.99 0 4.58 0C7.18 0 9.02 1.79 9.02 4.06C9.02 5.63 8.31 6.87 5.74 9.61L2.56 13V13.12H9.27V14.75H0V13.41Z" fill="black"/>
<path d="M12.2 13.41L17.03 8.17C18.64 6.42 19.46 5.43 19.46 4.09C19.46 2.57 18.28 1.62 16.73 1.62C15.07 1.62 14.02 2.69 14.02 4.33H12.24C12.24 1.75 14.19 0 16.78 0C19.38 0 21.22 1.79 21.22 4.06C21.22 5.63 20.51 6.87 17.94 9.61L14.76 13V13.12H21.47V14.75H12.2V13.41Z" fill="black"/>
<path d="M28.6799 0.200012H30.8299L36.1799 14.75H34.2299L32.7699 10.69H26.7699L25.3599 14.75H23.3999L28.6799 0.200012ZM32.1999 9.06001L31.1499 6.11001C30.7999 5.13001 30.3699 3.79001 29.7499 1.68001C29.1299 3.83001 28.6899 5.22001 28.3699 6.11001L27.3399 9.06001H32.1999Z" fill="#717171"/>
<path d="M38.4499 0.200012H43.4299C46.8299 0.200012 48.3899 2.09001 48.3899 4.69001C48.3899 6.62001 47.5299 8.12001 45.6899 8.76001L48.9499 14.75H46.7999L43.7699 9.10001C43.6599 9.10001 43.5499 9.10001 43.4399 9.10001H40.2999V14.74H38.4399V0.200012H38.4499ZM43.3499 7.45001C45.6399 7.45001 46.5399 6.40001 46.5399 4.69001C46.5399 2.96001 45.6399 1.83001 43.3299 1.83001H40.2999V7.45001H43.3499Z" fill="#717171"/>
<path d="M50.75 7.48C50.75 2.86 53.47 0 57.21 0C60.16 0 62.56 1.78 63.08 4.78H61.22C60.81 2.79 59.1 1.72 57.21 1.72C54.59 1.72 52.56 3.75 52.56 7.48C52.56 11.2 54.6 13.22 57.21 13.22C59.11 13.22 60.81 12.15 61.22 10.16H63.08C62.57 13.12 60.19 14.94 57.21 14.94C53.48 14.94 50.75 12.09 50.75 7.48Z" fill="#717171"/>
<path d="M65.9299 0.200012H67.7899V6.49001H75.4299V0.200012H77.2899V14.75H75.4299V8.12001H67.7899V14.74H65.9299V0.200012Z" fill="#717171"/>
<path d="M80.79 0.200012H89.66V1.84001H82.65V6.59001H89.18V8.23001H82.65V13.11H89.75V14.75H80.79V0.200012Z" fill="#717171"/>
<path d="M92.01 0.200012H103.01V1.84001H98.45V14.75H96.59V1.84001H92.01V0.200012Z" fill="black"/>
<path d="M110.21 8.79001L104.86 0.200012H107.01L109.89 4.90001C110.38 5.70001 110.77 6.36001 111.16 7.27001C111.55 6.33001 111.94 5.67001 112.41 4.90001L115.28 0.200012H117.42L112.07 8.79001V14.75H110.21V8.79001Z" fill="black"/>
<path d="M119.69 0.200012H124.67C128.07 0.200012 129.63 2.24001 129.63 4.83001C129.63 7.43001 128.07 9.49001 124.68 9.49001H121.55V14.75H119.69V0.200012ZM124.59 7.85001C126.89 7.85001 127.78 6.55001 127.78 4.82001C127.78 3.10001 126.89 1.82001 124.57 1.82001H121.54V7.85001H124.59Z" fill="black"/>
<path d="M132.46 0.200012H141.33V1.84001H134.32V6.59001H140.85V8.23001H134.32V13.11H141.42V14.75H132.46V0.200012Z" fill="black"/>
<path d="M143.86 10.94H145.76C145.91 12.59 147.43 13.34 149.14 13.34C151.11 13.34 152.62 12.3 152.62 10.75C152.62 9.34 151.29 8.83 149.74 8.39L147.98 7.89C145.64 7.23 144.27 6.02 144.27 4.09C144.27 1.63 146.46 0 149.27 0C152.14 0 154.14 1.67 154.23 3.87H152.41C152.24 2.45 150.94 1.64 149.21 1.64C147.33 1.64 146.08 2.64 146.08 4C146.08 5.52 147.79 6.06 148.85 6.35L150.31 6.75C151.87 7.18 154.43 8.06 154.43 10.77C154.43 13.15 152.51 14.99 149.15 14.99C145.99 15 144.02 13.38 143.86 10.94Z" fill="black"/>
</g>
<defs>
<clipPath id="clip0_113_111">
<rect width="154.42" height="15" fill="white"/>
</clipPath>
</defs>
</svg>
